# xmcd
#
# Track frame offsets:
#	150
#	20802
#	51762
#	72092
#	92017
#	109100
#	129090
#	145162
#	160587
#	177730
#
# Disc length: 2809 seconds
#
# Revision: 1
# Processed by: cddbd v1.4PL0 Copyright (c) Steve Scherf et al.
# Submitted via: audiograbber 1.82.02
#
DISCID=830af70a
DTITLE=marlena shaw - memories
DYEAR=1900
DGENRE=Soul
TTITLE0=pictures and memories
TTITLE1=yu ma - go away little boy
TTITLE2=sweet beginnings
TTITLE3=no deposit no return
TTITLE4=more
TTITLE5=dreamin'
TTITLE6=theme from "looking for mr.goodbar"
TTITLE7=mamma tried
TTITLE8=rhythm of love
TTITLE9=touch me in the morning
EXTD=
EXTT0=
EXTT1=
EXTT2=
EXTT3=
EXTT4=
EXTT5=
EXTT6=
EXTT7=
EXTT8=
EXTT9=
PLAYORDER=
